PathFileType	4	(X/Y/Z)	C:/Users/beibeiliu/ov580/test_trc/User2\sequence.10_training_dense_right.trc
DataRate	CameraRate	NumFrames	NumMarkers	Units	OrigDataRate	OrigDataStartFrame	OrigNumFrames
120	120	18	19	mm	120	243	484
Frame#	Time	ThumbCMC			ThumbMCP			ThumbIP			ThumbTip			IndexMCP			IndexPIP			IndexTip			MiddleMCP			MiddlePIP			MiddleTip			RingMCP			RingPIP			RingTip			PinkyMCP			PinkyPIP			PinkyTip			BackHand1			BackHand2			BackHand3	
		X0	Y0	Z0	X1	Y1	Z1	X2	Y2	Z2	X3	Y3	Z3	X4	Y4	Z4	X5	Y5	Z5	X6	Y6	Z6	X7	Y7	Z7	X8	Y8	Z8	X9	Y9	Z9	X10	Y10	Z10	X11	Y11	Z11	X12	Y12	Z12	X13	Y13	Z13	X14	Y14	Z14	X15	Y15	Z15	X16	Y16	Z16	X17	Y17	Z17	X18	Y18	Z18	
242	2.01667	100.496	21.7003	99.1159	64.7155	12.1742	88.3555	36.0752	-6.41093	72.7232	30.8963	-31.7724	65.5403	108.613	1.38947	25.1484	99.3963	-5.21679	-1.96077	90.1095	-14.0962	-27.1088	93.0198	-35.6291	28.6471	54.4634	-40.5623	23.8543	30.7907	-38.6824	50.4175	84.2326	-52.3096	47.0605	51.3822	-48.7758	55.4426	47.062	-31.4028	89.1519	86.738	-66.7576	66.5759	54.3545	-53.4551	78.3699	58.9398	-27.4736	99.3406	134.251	-35.1339	79.3722	151.321	-26.9602	112.432	139.827	3.38252	89.0256	
243	2.025	86.8987	19.2523	108.998	51.2975	3.41312	96.571	27.7117	-18.7926	78.5641	18.96	-42.4046	66.4062	93.7233	2.22187	23.4705	83.7752	0.459117	0.818635	74.9208	-6.48201	-24.0857	87.1071	-33.6193	30.2098	51.882	-47.8055	26.8469	30.3401	-44.398	61.3046	78.7559	-52.6941	45.3486	49.7423	-55.9345	55.7862	43.4409	-42.2182	87.2593	84.9306	-65.5148	64.1675	54.5696	-59.4633	78.7972	58.8715	-39.9149	99.5053	130.706	-34.5787	77.7912	144.414	-22.6713	110.019	127.573	8.06572	89.2262	
244	2.03333	77.1416	11.0819	114.036	45.9497	-9.27126	98.1882	21.6015	-30.3812	77.9015	16.656	-52.5613	63.7509	83.2013	1.19619	28.4511	72.9351	-0.475368	2.44763	62.7252	-6.59547	-24.1739	79.9985	-30.9635	29.5007	48.7226	-53.1011	31.3977	33.5232	-51.6322	69.3661	79.4517	-57.4602	43.2884	52.6201	-68.5991	55.6375	45.0502	-52.6539	91.5163	87.8547	-71.1643	61.8899	57.8256	-68.1684	77.865	63.1537	-45.9363	103.788	128.481	-26.2801	78.3754	140.572	-19.5253	110.092	115.94	8.83903	88.6395	
245	2.04167	72.5623	3.90239	114.252	43.28	-17.5175	96.8278	24.04	-37.539	78.6729	22.0146	-61.749	61.587	78.5847	-1.99655	31.3133	67.0899	-2.99404	6.3997	59.7075	-13.1457	-23.6353	79.4517	-38.5758	27.827	50.8992	-59.9079	31.053	37.2333	-63.5061	67.5237	84.1457	-62.8996	42.4503	55.18	-74.3229	54.7734	49.4781	-67.0674	86.9963	90.1086	-77.5989	60.1355	64.0493	-75.8504	76.8318	66.1363	-52.8601	99.5213	125.911	-28.7542	75.0207	139.352	-17.7151	110.232	110.846	6.89341	93.0847	
246	2.05	68.8393	-2.91995	109.869	42.9063	-26.3817	92.6775	28.6182	-49.4719	73.4209	30.5794	-72.6882	54.8063	79.4576	-9.77483	28.7795	69.6956	-12.727	0.214585	64.8783	-20.1737	-22.976	82.8609	-46.0976	25.6356	57.5708	-72.0571	30.6111	43.5779	-71.609	68.8061	87.8921	-64.3461	39.5876	64.0773	-85.4344	52.9921	56.6095	-77.089	86.2626	99.8349	-79.7079	58.4799	73.0562	-85.2722	72.8174	71.2613	-58.9759	99.1114	131.552	-31.4318	75.2833	140.7	-19.3961	109.331	108.925	4.08402	92.3059	
247	2.05833	67.9723	-9.77593	107.611	44.5412	-35.7359	90.01	31.9774	-61.2963	69.8149	34.4908	-84.2514	52.181	81.9105	-15.3663	26.7142	75.8932	-23.2863	-2.1764	70.4424	-31.3164	-28.9372	88.5272	-51.3177	26.1265	64.8574	-80.0594	30.0608	51.5395	-82.2349	65.6855	96.5275	-75.8288	39.0459	75.9955	-94.1526	53.1373	63.8252	-84.5723	86.0682	109.009	-87.7943	58.6083	80.641	-91.256	73.9723	79.036	-70.325	99.0303	134.19	-32.6424	79.5515	138.532	-18.0735	108.754	109.254	0.473019	88.1257	
248	2.06667	69.769	-16.3813	108.172	47.1935	-42.194	93.4203	36.0813	-70.5355	70.6718	40.3594	-94.9297	55.3678	85.2839	-24.0637	26.0191	83.5067	-33.2263	0.766493	80.6046	-43.3303	-25.2479	94.648	-62.7389	27.658	70.8563	-88.5789	33.13	58.3281	-90.5013	69.8714	102.658	-77.9492	43.4212	81.6849	-98.1446	52.5632	68.7174	-90.3708	88.6091	116.259	-89.6238	62.1158	88.4382	-97.8228	78.0875	83.3991	-74.9292	104.222	136.084	-33.3784	79.7546	144.619	-19.7557	110.925	110.162	-5.9864	89.4655	
249	2.075	70.9748	-18.5816	111.902	47.4616	-48.4779	94.8678	37.9339	-75.7232	78.7481	44.5985	-102.13	62.1289	85.8042	-30.4473	27.7974	81.3052	-38.2173	2.89599	81.4886	-50.7508	-20.811	94.0548	-68.0155	31.7655	72.2389	-94.4431	38.3751	61.2195	-95.641	79.7653	101.533	-84.5281	46.9752	83.104	-104.427	61.6568	70.7625	-94.9141	94.6578	114.44	-90.4774	65.6562	92.9897	-104.158	85.7828	85.084	-77.4281	107.941	132.587	-32.6568	80.7599	140.771	-17.4776	113.81	111.332	-6.77454	92.0481	
250	2.08333	64.7823	-20.4094	114.565	42.2892	-49.2256	106.475	31.5669	-79.2367	87.1125	43.1409	-102.184	73.5192	76.3048	-29.6147	32.4621	76.5083	-39.6872	10.8161	71.5706	-51.0534	-13.9189	87.7159	-65.1596	39.4948	69.2473	-97.3536	47.6263	59.4556	-95.7666	86.5269	102.094	-82.4209	54.2357	82.1872	-105.705	67.1322	69.6439	-96.5172	102.643	113.382	-90.8311	70.7686	88.2546	-103.519	91.0572	83.2667	-80.7157	113.418	128.961	-30.6476	85.2487	135.417	-16.5129	113.223	101.75	-5.78374	93.3236	
251	2.09167	59.9354	-16.6071	123.272	41.5894	-46.5441	115.04	29.1622	-75.4906	98.2641	37.5743	-99.9881	78.3784	66.2772	-24.0379	44.1232	59.6289	-33.5526	14.4373	57.9183	-49.2773	-11.9245	76.0567	-58.6201	43.4295	58.7159	-92.2945	53.2756	51.2714	-92.3989	90.8979	90.0245	-77.9853	56.0471	74.8493	-103.094	70.8703	64.1545	-93.2246	105.676	107.29	-88.6348	72.1489	82.4439	-99.5348	93.2983	76.0079	-78.7444	117.757	122.028	-27.9295	84.1831	134.035	-16.3683	114.505	96.8368	-3.53498	98.6125	
252	2.1	57.7034	-13.4088	129.411	34.3473	-42.2607	117.532	22.0528	-70.4175	101.917	29.8387	-91.985	87.0581	61.0803	-19.4953	47.7258	49.4278	-26.8002	19.9389	39.7042	-36.5605	-6.28865	66.8039	-53.3514	46.3226	50.8366	-85.1163	53.6251	45.2544	-84.2026	96.6191	80.4216	-71.905	57.9448	64.4244	-96.7337	72.2069	57.5245	-88.4136	108.757	94.7693	-80.484	71.4035	76.0731	-96.5942	94.5135	73.5341	-77.1156	120.972	118.88	-25.321	86.2017	131.817	-13.0716	115.719	95.2298	0.517244	102.541	
253	2.10833	55.43	-8.18855	130.484	34.1718	-34.4662	123.806	15.5232	-63.2794	101.408	19.3289	-84.5619	83.6689	50.5156	-7.70316	50.9728	39.1829	-13.79	25.0293	29.4602	-21.287	2.32381	57.9991	-42.278	47.7591	41.0263	-76.8502	55.7647	37.8632	-78.5976	95.7869	73.8958	-65.4642	56.4074	56.6115	-86.1491	70.5376	51.8411	-81.3124	107.475	91.1539	-75.399	70.6067	69.5174	-89.0526	90.1164	68.4211	-71.6842	119.466	112.548	-21.6042	86.1488	126.522	-5.78657	115.446	93.1582	6.66501	105.347	
254	2.11667	58.7161	-4.94934	132.444	34.5058	-30.6736	119.931	18.4246	-54.6261	99.068	23.5548	-74.9431	79.1621	51.5373	-1.89842	46.9027	40.7084	-6.8965	25.7363	25.6099	-11.3148	-2.71233	58.7014	-33.4292	45.403	39.2388	-66.8642	50.3903	38.6033	-72.354	91.7604	72.477	-57.155	52.9902	53.5002	-79.7518	67.1627	51.7166	-74.6076	104.32	91.251	-70.4929	65.3522	65.2816	-79.7527	87.5825	68.4533	-63.4538	111.97	115.849	-15.8009	86.5048	125.066	-2.76684	113.528	91.7356	12.0242	107.699	
255	2.125	58.854	-2.65902	129.9	34.2271	-28.1021	110.481	18.0675	-52.2477	88.8149	23.6958	-71.9453	66.0942	55.9525	4.41317	47.0805	43.8528	1.29895	19.5025	33.0719	-5.04511	-8.76284	64.0148	-29.0062	37.9514	45.8983	-60.7748	40.9964	42.4997	-69.8683	77.7692	79.2254	-49.4101	47.8739	58.4966	-76.5373	61.0403	54.6723	-72.1809	93.647	96.5963	-65.1073	58.746	71.6055	-77.8186	79.1057	70.5206	-59.7218	103.489	115.983	-12.1082	81.9349	129.587	-0.812863	115.619	91.5854	14.1746	104.764	
256	2.13333	61.8951	-4.7447	118.248	40.2207	-29.7625	101.712	27.7515	-51.8325	76.8174	33.7586	-68.9635	58.7088	64.8243	4.65286	37.7669	54.6219	3.86067	13.4567	46.6791	-3.55905	-14.3595	77.102	-26.2493	32.3363	57.1832	-59.5876	31.6314	48.6964	-68.5387	70.4929	83.1774	-48.3613	39.2076	70.8469	-74.72	50.2605	60.8365	-73.0294	84.3373	102.827	-64.1113	51.9027	77.4248	-73.9691	70.7364	75.7742	-59.2777	95.063	120.253	-7.74008	80.562	131.3	1.10886	111.132	100.168	14.7123	102.134	
257	2.14167	62.7698	-6.14789	115.073	46.5529	-32.1824	94.6403	33.5183	-55.5727	70.3423	43.6097	-72.4909	48.4428	70.9598	3.37002	30.6491	68.151	-3.10645	1.53903	62.0419	-8.3988	-22.7124	82.949	-27.5766	24.95	67.084	-60.4361	24.0701	59.0057	-72.4651	62.8866	94.8909	-49.749	34.6961	78.7112	-76.7052	45.2708	67.8195	-74.9425	77.7946	112.991	-64.1327	50.1967	88.7541	-78.0179	64.8598	83.8454	-58.2964	92.6754	127.02	-11.1847	75.8364	136.077	-0.740366	109.131	102.318	12.3466	98.4337	
258	2.15	66.8468	-11.435	110.12	45.7817	-38.2065	87.32	40.426	-62.6697	64.4209	51.5654	-82.2091	43.7159	82.2542	-4.45223	27.4567	78.8001	-10.8909	-3.34227	77.168	-18.6307	-25.6123	95.6678	-37.1003	23.405	74.2638	-70.5903	23.0908	66.4941	-78.8829	61.1638	106.961	-60.274	33.3246	87.1351	-83.6545	43.8139	76.5791	-79.8323	79.345	121.507	-65.1267	51.5017	96.7209	-84.9636	67.8825	88.4533	-62.4255	90.8024	132	-11.5743	75.9821	140.046	-5.04817	107.558	103.365	10.9843	92.4059	
259	2.15833	66.6067	-14.9022	106.662	52.112	-44.6594	87.7393	45.2215	-70.4537	66.0743	54.426	-91.0206	49.3522	82.59	-12.4305	23.0754	81.3425	-20.5583	-3.37097	81.142	-28.9514	-30.7286	98.7315	-48.9332	22.8076	79.2499	-78.6208	25.7416	73.0672	-88.8426	62.4686	109.378	-62.4184	35.9851	95.1619	-89.0583	45.4657	78.9845	-85.9065	78.2038	125.573	-75.6055	53.6416	98.6645	-89.3525	72.7323	90.4005	-70.7911	94.5195	135.363	-17.3153	73.6206	140.483	-6.57086	110.389	101.543	6.95836	92.6287	
